{"title":"Blue Steel (1989,1080p, BluRay, DTS)","uid":7197327,"size":8259129355,"categoryP":"video","categoryS":"hd___movies","magnet":"?xt=urn:btih:521cc4228eb37c6017f7d28edb7c7083ab8dc862&amp;dn=Blue+Steel+%281989%2C1080p%2C+BluRay%2C+DTS%29&amp;tr=udp%3A%2F%2Ftracker.openbittorrent.com%3A80&amp;tr=udp%3A%2F%2Fopen.demonii.com%3A1337&amp;tr=udp%3A%2F%2Ftracker.coppersurfer.tk%3A6969&amp;tr=udp%3A%2F%2Fexodus.desync.com%3A6969","seeders":0,"leechers":0,"uploader":null,"files":4,"time":1334828850,"description":"Blue.Steel.1989.1080p.BluRay.x264.DTS.mkv\n\n\nFile size                        : 7.65 GiB\nDuration                         : 1h 41mn\nOverall bit rate                 : 10.7 Mbps\n\n\nVideo\nFormat                           : AVC\nFormat settings, ReFrames        : 4 frames\nDuration                         : 1h 41mn\nBit rate                         : 9,248 Kbps\nWidth                            : 1,920 pixels\nHeight                           : 1,040 pixels\nDisplay aspect ratio             : 16:9\nFrame rate                       : 23.976 fps\nBit depth                        : 8 bits\nScan type                        : Progressive\nBits/(Pixel*Frame)               : 0.193\nStream size                      : 6.42 GiB (84%)\n\n\nAudio\nFormat                           : DTS\nDuration                         : 1h 41mn\nBit rate mode                    : Constant\nBit rate                         : 1,510 Kbps\nChannel(s)                       : 6 channels\nChannel positions                : Front: L C R, Side: L R, LFE\nSampling rate                    : 48.0 KHz\nBit depth                        : 24 bits\nStream size                      : 1.07 GiB (14%)\nLanguage                         : English","torrent":{"xt":"urn:btih:521cc4228eb37c6017f7d28edb7c7083ab8dc862","amp;dn":"Blue+Steel+%281989%2C1080p%2C+BluRay%2C+DTS%29","amp;tr":["udp%3A%2F%2Ftracker.openbittorrent.com%3A80","udp%3A%2F%2Fopen.demonii.com%3A1337","udp%3A%2F%2Ftracker.coppersurfer.tk%3A6969","udp%3A%2F%2Fexodus.desync.com%3A6969"],"infoHash":"521cc4228eb37c6017f7d28edb7c7083ab8dc862","infoHashBuffer":{"type":"Buffer","data":[82,28,196,34,142,179,124,96,23,247,210,142,219,124,112,131,171,141,200,98]},"announce":[],"urlList":[]}}